<?xml version="1.0" encoding="utf-8"?>
<!-- Generator: Adobe Illustrator 22.0.0, SVG Export Plug-In . SVG Version: 6.00 Build 0)  -->
<svg version="1.1" id="Layer_1" xmlns="http://www.w3.org/2000/svg" xmlns:xlink="http://www.w3.org/1999/xlink" x="0px" y="0px"
	 viewBox="0 0 24 24" style="enable-background:new 0 0 24 24;" xml:space="preserve">
<style type="text/css">
	.st0{fill:#FFFFFF;}
</style>
<path class="st0" d="M12,23C5.9,23,1,18.1,1,12S5.9,1,12,1s11,4.9,11,11S18.1,23,12,23z M12,3c-5,0-9,4-9,9c0,5,4,9,9,9c5,0,9-4,9-9
	C21,7,17,3,12,3z"/>
<g>
	<path class="st0" d="M12,19.4c-0.9,0-1.7-0.7-1.7-1.7V11c0-0.9,0.7-1.7,1.7-1.7s1.7,0.7,1.7,1.7v6.7C13.7,18.6,12.9,19.4,12,19.4z"
		/>
	<path class="st0" d="M12,8c-0.9,0-1.7-0.7-1.7-1.7s0.7-1.7,1.7-1.7h0c0.9,0,1.7,0.7,1.7,1.7S12.9,8,12,8z"/>
</g>
</svg>
