<?xml version="1.0" encoding="utf-8"?>
<!-- Generator: Adobe Illustrator 22.0.0, SVG Export Plug-In . SVG Version: 6.00 Build 0)  -->
<svg version="1.1" id="Layer_1" xmlns="http://www.w3.org/2000/svg" xmlns:xlink="http://www.w3.org/1999/xlink" x="0px" y="0px"
	 viewBox="0 0 24 24" style="enable-background:new 0 0 24 24;" xml:space="preserve">
<style type="text/css">
	.st0{fill:#FFFFFF;}
</style>
<g>
	<path class="st0" d="M4.7,12l0.8-0.8c0.3-0.3,0.3-0.8,0-1.1s-0.8-0.3-1.1,0l-0.8,0.8l-0.8-0.8c-0.3-0.3-0.8-0.3-1.1,0
		s-0.3,0.8,0,1.1L2.6,12l-0.8,0.8c-0.3,0.3-0.3,0.8,0,1.1c0.1,0.1,0.3,0.2,0.5,0.2s0.4-0.1,0.5-0.2l0.8-0.8l0.8,0.8
		C4.6,14,4.8,14.1,5,14.1s0.4-0.1,0.5-0.2c0.3-0.3,0.3-0.8,0-1.1L4.7,12z"/>
	<path class="st0" d="M4.7,5.6l0.8-0.8c0.3-0.3,0.3-0.8,0-1.1s-0.8-0.3-1.1,0L3.7,4.5L2.8,3.7c-0.3-0.3-0.8-0.3-1.1,0
		s-0.3,0.8,0,1.1l0.8,0.8L1.8,6.4c-0.3,0.3-0.3,0.8,0,1.1c0.1,0.1,0.3,0.2,0.5,0.2s0.4-0.1,0.5-0.2l0.8-0.8l0.8,0.8
		C4.6,7.6,4.8,7.7,5,7.7s0.4-0.1,0.5-0.2c0.3-0.3,0.3-0.8,0-1.1L4.7,5.6z"/>
	<path class="st0" d="M4.7,18.4l0.8-0.8c0.3-0.3,0.3-0.8,0-1.1s-0.8-0.3-1.1,0l-0.8,0.8l-0.8-0.8c-0.3-0.3-0.8-0.3-1.1,0
		s-0.3,0.8,0,1.1l0.8,0.8l-0.8,0.8c-0.3,0.3-0.3,0.8,0,1.1c0.1,0.1,0.3,0.2,0.5,0.2s0.4-0.1,0.5-0.2l0.8-0.8l0.8,0.8
		c0.1,0.1,0.3,0.2,0.5,0.2s0.4-0.1,0.5-0.2c0.3-0.3,0.3-0.8,0-1.1L4.7,18.4z"/>
	<path class="st0" d="M9.4,6.9H21c0.7,0,1.3-0.6,1.3-1.3S21.7,4.3,21,4.3H9.4c-0.7,0-1.3,0.6-1.3,1.3S8.7,6.9,9.4,6.9z"/>
	<path class="st0" d="M21,10.7H9.4c-0.7,0-1.3,0.6-1.3,1.3s0.6,1.3,1.3,1.3H21c0.7,0,1.3-0.6,1.3-1.3S21.7,10.7,21,10.7z"/>
	<path class="st0" d="M21,17.1H9.4c-0.7,0-1.3,0.6-1.3,1.3s0.6,1.3,1.3,1.3H21c0.7,0,1.3-0.6,1.3-1.3S21.7,17.1,21,17.1z"/>
</g>
</svg>
