<?xml version="1.0" encoding="utf-8"?>
<!-- Generator: Adobe Illustrator 22.0.0, SVG Export Plug-In . SVG Version: 6.00 Build 0)  -->
<svg version="1.1" id="Layer_1" xmlns="http://www.w3.org/2000/svg" xmlns:xlink="http://www.w3.org/1999/xlink" x="0px" y="0px"
	 viewBox="0 0 24 24" style="enable-background:new 0 0 24 24;" xml:space="preserve">
<style type="text/css">
	.st0{fill:#FFFFFF;}
</style>
<path class="st0" d="M18,3h-1c0-1.1-0.9-2-2-2H9C7.9,1,7,1.9,7,3H6C4.3,3,3,4.3,3,6v14c0,1.7,1.3,3,3,3h12c1.7,0,3-1.3,3-3V6
	C21,4.3,19.7,3,18,3z M9,3h6v2H9l0-1c0,0,0,0,0,0s0,0,0,0L9,3L9,3z M19,20c0,0.6-0.4,1-1,1H6c-0.6,0-1-0.4-1-1V6c0-0.6,0.4-1,1-1h1
	c0,1.1,0.9,2,2,2h6c1.1,0,2-0.9,2-2h1c0.6,0,1,0.4,1,1V20z"/>
</svg>
