<?xml version="1.0" encoding="utf-8"?>
<!-- Generator: Adobe Illustrator 22.0.0, SVG Export Plug-In . SVG Version: 6.00 Build 0)  -->
<svg version="1.1" id="mdi-arrow-collapse-up" xmlns="http://www.w3.org/2000/svg" xmlns:xlink="http://www.w3.org/1999/xlink"
	 x="0px" y="0px" viewBox="0 0 24 24" style="enable-background:new 0 0 24 24;" xml:space="preserve">
<style type="text/css">
	.st0{fill:#FFFFFF;}
</style>
<path class="st0" d="M12.4,3.5l8,8c0.2,0.2,0.2,0.6,0,0.8l-0.8,0.8c-0.2,0.2-0.6,0.2-0.8,0l-4.8-4.8c-0.4-0.4-1-0.1-1,0.4v13.9
	c0,0.3-0.3,0.6-0.6,0.6h-1.1c-0.3,0-0.6-0.3-0.6-0.6V8.7c0-0.5-0.6-0.7-1-0.4l-4.8,4.8c-0.2,0.2-0.6,0.2-0.8,0l-0.8-0.8
	c-0.2-0.2-0.2-0.6,0-0.8l8-8C11.8,3.3,12.2,3.3,12.4,3.5z M12,3.1h10.6c0.3,0,0.6-0.3,0.6-0.6V1.4c0-0.3-0.3-0.6-0.6-0.6H1.4
	c-0.3,0-0.6,0.3-0.6,0.6v1.1c0,0.3,0.3,0.6,0.6,0.6H12z"/>
</svg>
