<?xml version="1.0" encoding="utf-8"?>
<!-- Generator: Adobe Illustrator 22.0.0, SVG Export Plug-In . SVG Version: 6.00 Build 0)  -->
<svg version="1.1" id="svg8" xmlns="http://www.w3.org/2000/svg" xmlns:xlink="http://www.w3.org/1999/xlink" x="0px" y="0px"
	 viewBox="0 0 16 16" style="enable-background:new 0 0 16 16;" xml:space="preserve">
<style type="text/css">
	.st0{fill:#FFFFFF;}
</style>
<path id="path4749-2-8-2-9" class="st0" d="M8,3l1.2,3l0.3,0.7h3.3l-2.2,1.9L10,9l0.3,0.7l1.1,3.5l-2.7-2L8,10.8l-0.6,0.4l-2.8,2
	l1.1-3.5L5.9,9L5.4,8.6L3.2,6.6h3.3l0.3-0.7L8,3 M8,0L5.8,5.5H0.3l4.4,3.9L2.5,16L8,12.1l5.5,3.9l-2.2-6.6l4.4-3.9h-5.5L8,0z"/>
<path class="st0" d="M15.3,9.3H0.7C0.3,9.3,0,9,0,8.7C0,8.3,0.3,8,0.7,8h14.6C15.7,8,16,8.3,16,8.7C16,9,15.7,9.3,15.3,9.3z"/>
</svg>
