<?xml version="1.0" encoding="utf-8"?>
<!-- Generator: Adobe Illustrator 22.0.0, SVG Export Plug-In . SVG Version: 6.00 Build 0)  -->
<svg version="1.1" id="Layer_1" xmlns="http://www.w3.org/2000/svg" xmlns:xlink="http://www.w3.org/1999/xlink" x="0px" y="0px"
	 viewBox="0 0 24 24" style="enable-background:new 0 0 24 24;" xml:space="preserve">
<style type="text/css">
	.st0{fill:#FFFFFF;}
</style>
<g>
	<path class="st0" d="M21,14c-0.6,0-1,0.4-1,1v4c0,0.6-0.4,1-1,1H5c-0.6,0-1-0.4-1-1v-4c0-0.6-0.4-1-1-1s-1,0.4-1,1v4
		c0,1.7,1.3,3,3,3h14c1.7,0,3-1.3,3-3v-4C22,14.4,21.6,14,21,14z"/>
	<path class="st0" d="M11.3,15.7c0.1,0.1,0.2,0.2,0.3,0.2C11.7,16,11.9,16,12,16s0.3,0,0.4-0.1c0.1-0.1,0.2-0.1,0.3-0.2l5-5
		c0.4-0.4,0.4-1,0-1.4s-1-0.4-1.4,0L13,12.6V3c0-0.6-0.4-1-1-1s-1,0.4-1,1v9.6L7.7,9.3c-0.4-0.4-1-0.4-1.4,0s-0.4,1,0,1.4L11.3,15.7
		z"/>
</g>
</svg>
