<?xml version="1.0" encoding="utf-8"?>
<!-- Generator: Adobe Illustrator 22.0.0, SVG Export Plug-In . SVG Version: 6.00 Build 0)  -->
<svg version="1.1" id="e621_logo" xmlns="http://www.w3.org/2000/svg" xmlns:xlink="http://www.w3.org/1999/xlink" x="0px" y="0px"
	 viewBox="0 0 24 24" style="enable-background:new 0 0 24 24;" xml:space="preserve">
<style type="text/css">
	.st0{fill:#00549E;}
	.st1{fill:#F7F7F7;}
	.st2{fill:#FDBE2F;}
	.st3{fill:#FFFFFF;}
</style>
<g id="logo">
	<g id="ehexagon">
		<path id="hexagon" class="st0" d="M1,14l4.6-7.9h9.1l4.6,7.9l-4.6,7.9H5.5L1,14z"/>
		<path id="e" class="st1" d="M8.6,13.9c0.5,0.5,1.1,0.7,1.8,0.6c0.7,0,1.2-0.3,1.7-0.8l1.2,1.1c-0.7,0.9-1.7,1.3-2.8,1.4
			c-1.1,0.1-2.1-0.3-2.9-1c-0.8-0.8-1.3-1.7-1.4-2.9c-0.1-1.2,0.3-2.2,1-3c0.7-0.9,1.7-1.3,2.8-1.4c1.1-0.1,2.1,0.3,2.9,1
			c1.1,1,1.5,2.2,1.3,3.7L7.9,13C8.1,13.4,8.3,13.7,8.6,13.9L8.6,13.9z M11.8,10.2c-0.5-0.5-1.1-0.7-1.8-0.6c-0.7,0-1.2,0.3-1.7,0.8
			c-0.3,0.3-0.4,0.6-0.5,1l4.6-0.3C12.3,10.7,12.1,10.4,11.8,10.2L11.8,10.2z"/>
	</g>
	<g id="ears">
		<g id="left">
			<path id="lefttop" class="st2" d="M10.1,1.8c0.3-0.5,1.2-1.8,2-1.8c1,0,1.2,2.3,1.2,3.7L10.1,1.8z"/>
			<path id="leftbot" class="st3" d="M8.5,4.7l1.5-0.1c1.3-1.9,1.7-1.8,1.9,0.2L13.3,5c0-0.4,0-0.9,0-1.3c-0.6-0.4-0.9-0.7-1.4-1.2
				c-0.4-0.3-1.1-0.7-1.8-0.7C9.5,2.8,9.1,3.5,8.5,4.7z"/>
		</g>
		<g id="right">
			<path id="righttop" class="st2" d="M19.9,6.8C21.5,6.6,23,6.8,23,7.7c0,1.1-2,2.8-2.4,3.2C20.2,9.8,20.4,8.1,19.9,6.8z"/>
			<path class="st3" d="M17,7.5l1,1c2.1-0.1,2.7,0.3,1.2,1.7l0.7,1.4c0.3-0.3,0.5-0.4,0.8-0.7c-0.3-0.9,0.3-1,0.3-2.2
				c0-0.5-0.1-1.1-1-1.9C19.2,6.9,18.3,7,17,7.5z"/>
		</g>
	</g>
	<g>
		<path class="st3" d="M7.3,21.8h0.4v1.6H7.3V21.8z M7.3,21.1h1.1v2.1c-0.3,1-1.5,1-1.8,0v-4.5c0.3-1,1.5-1,1.8,0v1.9H7.8v-2H7.3
			V21.1z"/>
		<path class="st3" d="M8.9,20h0.7v-2H10v2.5H8.9v2.8h1.8v-1.8H10v1.2H9.6V21h1.1v-3c-0.3-0.9-1.5-1-1.8,0V20z"/>
		<path class="st3" d="M12.3,24h-0.7v-5.3h-0.5v-0.6h0.5c0.5,0.1,0.7,0.6,0.7,0.8V24z"/>
	</g>
</g>
</svg>
