<?xml version="1.0" encoding="utf-8"?>
<!-- Generator: Adobe Illustrator 22.0.0, SVG Export Plug-In . SVG Version: 6.00 Build 0)  -->
<svg version="1.1" id="Layer_1" xmlns="http://www.w3.org/2000/svg" xmlns:xlink="http://www.w3.org/1999/xlink" x="0px" y="0px"
	 viewBox="0 0 24 24" style="enable-background:new 0 0 24 24;" xml:space="preserve">
<style type="text/css">
	.st0{fill:#FFFFFF;}
</style>
<path class="st0" d="M10.6,19.2l9.9-9.9c0.8-0.8,0.8-2,0-2.8l-4.2-4.2c-0.8-0.8-2-0.8-2.8,0L3.7,12c-0.8,0.8-0.8,2,0,2.8L8,19.2
	H10.6z M14.9,3.6l4.2,4.2l-5.5,5.5L9.4,9.2L14.9,3.6z M5.1,13.5L8,10.6l4.2,4.2l-2.9,2.9L5.1,13.5z"/>
<path class="st0" d="M4.1,20.3c-0.6,0-1,0.4-1,1s0.4,1,1,1h16c0.6,0,1-0.4,1-1s-0.4-1-1-1H4.1z"/>
</svg>
