<?xml version="1.0" encoding="utf-8"?>
<!-- Generator: Adobe Illustrator 22.0.0, SVG Export Plug-In . SVG Version: 6.00 Build 0)  -->
<svg version="1.1" id="Layer_1" xmlns="http://www.w3.org/2000/svg" xmlns:xlink="http://www.w3.org/1999/xlink" x="0px" y="0px"
	 viewBox="0 0 18 24" style="enable-background:new 0 0 18 24;" xml:space="preserve">
<style type="text/css">
	.st0{fill:#FFFFFF;}
</style>
<path class="st0" d="M7.9,0v17.5l-0.2,0c-0.4,0-0.5-0.1-0.8-0.1c-1.2-0.3-2-0.9-2.5-1.9c-0.1-0.2-0.2-0.6-0.3-0.9
	c-0.1-0.3-0.1-0.6-0.1-0.8c0-0.1,0-0.2,0-0.3C4,13.2,4,12.2,4,9.1V5.7H0.2v0.7l0.1,0c0.6,0.1,1.1,0.4,1.2,0.8C1.6,7.6,1.6,8,1.7,9.5
	c0,2.4,0,3.7,0.1,3.9c0,0.1,0,0.2,0,0.3c0,0.2,0.1,0.5,0.1,0.9c0,0,0.1,0.2,0.1,0.4c0.5,1.6,1.4,2.5,2.8,3.1
	c0.8,0.3,1.9,0.5,2.9,0.5l0.1,0V24h2.2v-5.5l0.1,0c0.4,0,0.8,0,1.2-0.1c0.7-0.1,1.5-0.3,2.2-0.6c1.3-0.6,2.1-1.7,2.5-3.3
	c0-0.2,0.1-0.3,0.1-0.4c0,0,0-0.2,0-0.3c0-0.1,0-0.2,0.1-0.3c0-0.1,0-0.2,0-0.3c0.1-0.4,0.1-0.8,0.1-3.9c0-0.8,0-1.5,0-1.5
	c0-0.1,0-0.2,0-0.3c0.1-0.7,0.3-0.9,1.1-1.2l0.3-0.1l0-0.3c0-0.2,0-0.3,0-0.3c0,0-0.4,0-1.9,0l-1.9,0l0,3.5c0,1.9,0,3.7,0,3.8
	c-0.1,0.6-0.1,0.7-0.1,1c0,0.1,0,0.2-0.1,0.3c0,0.2-0.2,0.7-0.3,0.9c-0.2,0.5-0.4,0.8-0.7,1.1c-0.5,0.5-1.1,0.8-2.1,1
	c-0.2,0-0.4,0.1-0.5,0.1l-0.2,0V0H7.9z"/>
</svg>
