<?xml version="1.0" encoding="utf-8"?>
<!-- Generator: Adobe Illustrator 22.0.0, SVG Export Plug-In . SVG Version: 6.00 Build 0)  -->
<svg version="1.1"
	 id="svg1" inkscape:version="1.3 (0e150ed6c4, 2023-07-21)" sodipodi:docname="TaggerIcon.svg" xmlns:inkscape="http://www.inkscape.org/namespaces/inkscape" xmlns:sodipodi="http://sodipodi.sourceforge.net/DTD/sodipodi-0.dtd" xmlns:svg="http://www.w3.org/2000/svg"
	 xmlns="http://www.w3.org/2000/svg" xmlns:xlink="http://www.w3.org/1999/xlink" x="0px" y="0px" viewBox="0 0 512 512"
	 style="enable-background:new 0 0 512 512;" xml:space="preserve">
<style type="text/css">
	.st0{opacity:0.14;}
	.st1{fill:#3D437D;}
	.st2{fill:#8AB9DB;}
	.st3{fill:#D4ECFF;}
</style>
<g>
	
		<sodipodi:namedview  bordercolor="#000000" borderopacity="0.25" id="namedview1" inkscape:current-layer="layer2" inkscape:cx="202.36748" inkscape:cy="175.10793" inkscape:deskcolor="#353535" inkscape:document-units="px" inkscape:lockguides="false" inkscape:pagecheckerboard="0" inkscape:pageopacity="0.0" inkscape:showpageshadow="2" inkscape:window-height="1057" inkscape:window-maximized="1" inkscape:window-width="1920" inkscape:window-x="1912" inkscape:window-y="-8" inkscape:zoom="1.0821897" pagecolor="#aaa3a3" showguides="true">
		</sodipodi:namedview>
	<g id="layer1" inkscape:groupmode="layer" inkscape:label="Layer 1" class="st0">
	</g>
	<g>
		<path id="rect29_1_" sodipodi:nodetypes="sccsscssssssscscs" class="st1" d="M503.9,106.8c-3.4-5.8-7.5-7.5-11.4-9.5L367.7,33.3
			c-13.1-6.7-17.2-4.2-28.4,2.2L11.1,225.1c-5.5,3.2-7.8,11.9-4.9,17l132.3,229.1c2.9,4.9,11.7,7.4,17.2,4.2l328.2-189.5
			c11.2-6.5,15.2-8.8,16.1-23.5c0.7-10.7,6.8-135.6,7-140C507.2,118,507.2,112.6,503.9,106.8z M455.3,135.5
			c10.7,18.5,4.8,41.9-13.2,52.3c-18,10.4-41.2,3.8-51.9-14.7c-10.7-18.5-4.8-41.9,13.2-52.3C421.4,110.4,444.6,116.9,455.3,135.5z"
			/>
		<path class="st2" d="M486.3,290.1L158.1,479.6c-7.7,4.5-19.5,1.5-23.9-6L1.9,244.5c-4.3-7.5-1-19.2,6.7-23.7L337.2,31.2
			c0.1-0.1,0.2-0.1,0.3-0.2c11-6.4,17.2-9.8,32.4-2l125.8,64.4c3.8,1.9,8.6,4.3,12.4,10.9l0,0c0,0,0,0,0,0c4.3,7.5,4,14.5,3.8,18.3
			l-0.4,7.7c-4,81.7-6.2,126.2-6.7,132.4C503.7,280.1,497.9,283.4,486.3,290.1z M13.5,229.3c-3.3,1.9-4.7,7.7-3.1,10.3l132.3,229.1
			c1.5,2.6,7.3,4.3,10.5,2.4l328.2-189.5c10.9-6.3,12.9-7.4,13.7-19.5c0.4-6.1,2.6-50.6,6.6-132.2l0.4-7.7c0.2-4,0.2-8.4-2.5-12.9
			l0,0c-2.3-4-5-5.4-8.3-7.1l-1-0.5L365.5,37.7c-10.6-5.4-12.8-4.2-23.4,1.9L13.5,229.3z M444.5,192c-20.3,11.7-46.5,4.3-58.6-16.5
			c-5.8-10.1-7.5-21.7-4.7-32.8c2.8-11.2,9.8-20.5,19.6-26.1c9.8-5.7,21.4-7.1,32.4-3.9c11,3.1,20.3,10.4,26.1,20.5
			C471.5,153.8,464.8,180.3,444.5,192z M451,137.9c-4.5-7.8-11.7-13.5-20.3-15.9c-8.5-2.4-17.3-1.4-24.9,3c-7.5,4.3-12.9,11.5-15,20
			c-2.2,8.6-0.9,17.7,3.6,25.5c9.3,16.1,29.6,21.9,45.2,12.9C455.2,174.5,460.3,154,451,137.9z"/>
	</g>
	<path class="st3" d="M316.6,152.7l-225,129.9c-7.2,4.1-16.3,1.7-20.5-5.5l-9.5-16.5c-4.1-7.2-1.7-16.3,5.5-20.5l225-129.9
		c7.2-4.1,16.3-1.7,20.5,5.5l9.5,16.5C326.2,139.4,323.7,148.6,316.6,152.7z"/>
	<path class="st3" d="M356,221.1L131,351c-7.2,4.1-16.3,1.7-20.5-5.5L101,329c-4.1-7.2-1.7-16.3,5.5-20.5l225-129.9
		c7.2-4.1,16.3-1.7,20.5,5.5l9.5,16.5C365.7,207.7,363.2,216.9,356,221.1z"/>
	<path class="st3" d="M395.5,289.4l-225,129.9c-7.2,4.1-16.3,1.7-20.5-5.5l-9.5-16.5c-4.1-7.2-1.7-16.3,5.5-20.5l225-129.9
		c7.2-4.1,16.3-1.7,20.5,5.5l9.5,16.5C405.1,276.1,402.7,285.3,395.5,289.4z"/>
</g>
</svg>
