<?xml version="1.0" encoding="utf-8"?>
<!-- Generator: Adobe Illustrator 22.0.0, SVG Export Plug-In . SVG Version: 6.00 Build 0)  -->
<svg version="1.1" id="Layer_1" xmlns="http://www.w3.org/2000/svg" xmlns:xlink="http://www.w3.org/1999/xlink" x="0px" y="0px"
	 viewBox="0 0 24 24" style="enable-background:new 0 0 24 24;" xml:space="preserve">
<style type="text/css">
	.st0{fill:#FFFFFF;}
</style>
<path class="st0" d="M21.7,6.7c0-0.1,0-0.1-0.1-0.2c-0.1-0.1-0.2-0.2-0.2-0.3c-0.2-0.3-0.5-0.6-0.9-0.8l-7-4c-0.9-0.5-2.1-0.5-3,0
	L7.3,3.2c-0.2,0-0.3,0.1-0.5,0.3L3.5,5.4C3.2,5.6,2.9,5.9,2.6,6.2C2.6,6.3,2.5,6.4,2.4,6.5c0,0.1,0,0.1-0.1,0.2C2.1,7.1,2,7.5,2,8v8
	c0,1.1,0.6,2.1,1.5,2.6l7,4c0.3,0.2,0.7,0.3,1,0.3c0.1,0.1,0.3,0.1,0.5,0.1c0.2,0,0.3-0.1,0.5-0.1c0.3-0.1,0.7-0.2,1-0.3l7-4
	c0.9-0.5,1.5-1.5,1.5-2.6v0V8C22,7.5,21.9,7.1,21.7,6.7z M11.5,3.1C11.7,3,11.8,3,12,3c0.2,0,0.3,0,0.5,0.1L19,6.8l-2.5,1.4l-6.9-4
	L11.5,3.1z M12,10.9l-7-4l2.5-1.4l7,4L12,10.9z M4.5,16.9C4.2,16.7,4,16.4,4,16V8.5l7,4v8L4.5,16.9z M19.5,16.9L13,20.6v-8l7-4V16
	C20,16.4,19.8,16.7,19.5,16.9z"/>
</svg>
