<?xml version="1.0" encoding="utf-8"?>
<!-- Generator: Adobe Illustrator 22.0.0, SVG Export Plug-In . SVG Version: 6.00 Build 0)  -->
<svg version="1.1" id="Layer_1" xmlns="http://www.w3.org/2000/svg" xmlns:xlink="http://www.w3.org/1999/xlink" x="0px" y="0px"
	 viewBox="0 0 24 24" style="enable-background:new 0 0 24 24;" xml:space="preserve">
<style type="text/css">
	.st0{fill:#FFFFFF;}
</style>
<path class="st0" d="M1.8,5.6c0-0.7,0.6-1.3,1.3-1.3h1.3c0.7,0,1.3,0.6,1.3,1.3S5,6.9,4.3,6.9H3C2.3,6.9,1.8,6.3,1.8,5.6z M8.2,5.6
	c0-0.7,0.6-1.3,1.3-1.3H21c0.7,0,1.3,0.6,1.3,1.3S21.7,6.9,21,6.9H9.4C8.7,6.9,8.2,6.3,8.2,5.6z M1.8,12c0-0.7,0.6-1.3,1.3-1.3h1.3
	c0.7,0,1.3,0.6,1.3,1.3S5,13.3,4.3,13.3H3C2.3,13.3,1.8,12.7,1.8,12z M8.2,12c0-0.7,0.6-1.3,1.3-1.3H21c0.7,0,1.3,0.6,1.3,1.3
	s-0.6,1.3-1.3,1.3H9.4C8.7,13.3,8.2,12.7,8.2,12z M1.8,18.4c0-0.7,0.6-1.3,1.3-1.3h1.3c0.7,0,1.3,0.6,1.3,1.3S5,19.7,4.3,19.7H3
	C2.3,19.7,1.8,19.1,1.8,18.4z M8.2,18.4c0-0.7,0.6-1.3,1.3-1.3H21c0.7,0,1.3,0.6,1.3,1.3s-0.6,1.3-1.3,1.3H9.4
	C8.7,19.7,8.2,19.1,8.2,18.4z"/>
</svg>
