<?xml version="1.0" encoding="utf-8"?>
<!-- Generator: Adobe Illustrator 22.0.0, SVG Export Plug-In . SVG Version: 6.00 Build 0)  -->
<svg version="1.1" id="Layer_1" xmlns="http://www.w3.org/2000/svg" xmlns:xlink="http://www.w3.org/1999/xlink" x="0px" y="0px"
	 viewBox="0 0 24 24" style="enable-background:new 0 0 24 24;" xml:space="preserve">
<style type="text/css">
	.st0{fill:#FFFFFF;}
</style>
<g>
	<path class="st0" d="M20.9,7.6c-0.1-0.1-0.1-0.2-0.2-0.3l-6-6c-0.1-0.1-0.2-0.2-0.3-0.2C14.3,1,14.1,1,14,1H6C4.3,1,3,2.3,3,4v16
		c0,1.7,1.3,3,3,3h12c1.7,0,3-1.3,3-3V8C21,7.9,21,7.7,20.9,7.6z M15,4.4L17.6,7H15V4.4z M18,21H6c-0.6,0-1-0.4-1-1V4
		c0-0.6,0.4-1,1-1h7v5c0,0.6,0.4,1,1,1h5v11C19,20.6,18.6,21,18,21z"/>
	<path class="st0" d="M15,14h-2v-2c0-0.6-0.4-1-1-1s-1,0.4-1,1v2H9c-0.6,0-1,0.4-1,1s0.4,1,1,1h2v2c0,0.6,0.4,1,1,1s1-0.4,1-1v-2h2
		c0.6,0,1-0.4,1-1S15.6,14,15,14z"/>
</g>
</svg>
