<?xml version="1.0" encoding="utf-8"?>
<!-- Generator: Adobe Illustrator 22.0.0, SVG Export Plug-In . SVG Version: 6.00 Build 0)  -->
<svg version="1.1" id="Layer_1" xmlns="http://www.w3.org/2000/svg" xmlns:xlink="http://www.w3.org/1999/xlink" x="0px" y="0px"
	 viewBox="0 0 24 24" style="enable-background:new 0 0 24 24;" xml:space="preserve">
<style type="text/css">
	.st0{fill:#FFFFFF;}
</style>
<path class="st0" d="M19,20H5c0,0,0,0,0,0c-1.7,0-3-1.3-3-3V7c0-1.7,1.3-3,3-3h4c0.3,0,0.5,0.1,0.7,0.3L11.4,6H15c1.7,0,3,1.3,3,3h1
	c1.7,0,3,1.3,3,3v5C22,18.7,20.7,20,19,20z M7.8,18H19c0.6,0,1-0.4,1-1v-5c0-0.6-0.4-1-1-1H9c-0.6,0-1,0.4-1,1v5
	C8,17.4,7.9,17.7,7.8,18z M5,6C4.4,6,4,6.4,4,7v10c0,0.6,0.4,1,1,1s1-0.4,1-1v-5c0-1.7,1.3-3,3-3h7c0-0.6-0.4-1-1-1h-4
	c-0.3,0-0.5-0.1-0.7-0.3L8.6,6H5z"/>
</svg>
