<?xml version="1.0" encoding="utf-8"?>
<!-- Generator: Adobe Illustrator 22.0.0, SVG Export Plug-In . SVG Version: 6.00 Build 0)  -->
<svg version="1.1" id="Layer_1" xmlns="http://www.w3.org/2000/svg" xmlns:xlink="http://www.w3.org/1999/xlink" x="0px" y="0px"
	 viewBox="0 0 24 24" style="enable-background:new 0 0 24 24;" xml:space="preserve">
<style type="text/css">
	.st0{fill:#FFFFFF;}
</style>
<path class="st0" d="M22.4,8.7c-0.9-2.5-2.7-4.5-5.1-5.7c-2.4-1.2-5.1-1.3-7.6-0.4C8.3,3.1,7,3.9,6,4.9L3,7.7V4c0-0.6-0.4-1-1-1
	S1,3.4,1,4v6c0,0,0,0.1,0,0.1c0,0.1,0,0.2,0,0.2c0,0.1,0.1,0.1,0.1,0.2c0,0,0,0.1,0.1,0.1c0,0,0,0,0,0c0.1,0.1,0.1,0.1,0.2,0.1
	c0,0,0.1,0.1,0.1,0.1c0,0,0.1,0,0.1,0c0.1,0,0.2,0,0.2,0c0,0,0,0,0,0h6c0.6,0,1-0.4,1-1S8.6,9,8,9H4.5l2.8-2.7
	c0.8-0.8,1.9-1.5,3-1.9c2-0.7,4.2-0.6,6.1,0.3c1.9,0.9,3.4,2.5,4.1,4.6c0.7,2,0.6,4.2-0.3,6.1c-0.9,1.9-2.5,3.4-4.6,4.1
	c-4.2,1.5-8.7-0.7-10.2-4.9c-0.2-0.5-0.8-0.8-1.3-0.6c-0.5,0.2-0.8,0.8-0.6,1.3C5,19.4,8.9,22,13,22c1.1,0,2.2-0.2,3.3-0.6
	C21.5,19.6,24.3,13.9,22.4,8.7z"/>
</svg>
