<?xml version="1.0" encoding="utf-8"?>
<!-- Generator: Adobe Illustrator 22.0.0, SVG Export Plug-In . SVG Version: 6.00 Build 0)  -->
<svg version="1.1" id="Layer_1" xmlns="http://www.w3.org/2000/svg" xmlns:xlink="http://www.w3.org/1999/xlink" x="0px" y="0px"
	 viewBox="0 0 16 16" style="enable-background:new 0 0 16 16;" xml:space="preserve">
<style type="text/css">
	.st0{fill:#FFFFFF;}
</style>
<path class="st0" d="M15.6,5.6c-0.7-1.8-2-3.3-3.7-4.1S8.1,0.5,6.3,1.2c-1,0.4-2,0.9-2.7,1.7l-2.2,2V2.2c0-0.4-0.3-0.7-0.7-0.7
	S0,1.7,0,2.2v4.4v0.1c0,0.1,0,0.1,0,0.1c0,0.1,0.1,0.1,0.1,0.1c0,0,0,0.1,0.1,0.1l0,0c0.1,0.1,0.1,0.1,0.1,0.1l0.1,0.1h0.1
	c0.1,0,0.1,0,0.1,0l0,0h4.4c0.4,0,0.7-0.3,0.7-0.7S5.5,5.8,5.1,5.8H2.5l2-2C5.2,3.3,6,2.8,6.8,2.5C8.2,2,9.8,2,11.2,2.7
	s2.5,1.8,3,3.3c0.5,1.5,0.4,3.1-0.2,4.4c-0.7,1.4-1.8,2.5-3.3,3c-3.1,1.1-6.3-0.5-7.4-3.6C3.1,9.5,2.6,9.3,2.3,9.5
	C1.9,9.6,1.7,10,1.8,10.4c1.1,3,3.9,4.9,6.9,4.9c0.8,0,1.6-0.1,2.4-0.4C14.9,13.5,16.9,9.4,15.6,5.6z"/>
</svg>
