<?xml version="1.0" encoding="utf-8"?>
<!-- Generator: Adobe Illustrator 22.0.0, SVG Export Plug-In . SVG Version: 6.00 Build 0)  -->
<svg version="1.1" id="Layer_1" xmlns="http://www.w3.org/2000/svg" xmlns:xlink="http://www.w3.org/1999/xlink" x="0px" y="0px"
	 viewBox="0 0 24 24" style="enable-background:new 0 0 24 24;" xml:space="preserve">
<style type="text/css">
	.st0{fill:#FFFFFF;}
</style>
<path class="st0" d="M18,23H4c-1.7,0-3-1.3-3-3V6c0-1.7,1.3-3,3-3h7c0.6,0,1,0.4,1,1s-0.4,1-1,1H4C3.4,5,3,5.4,3,6v14
	c0,0.6,0.4,1,1,1h14c0.6,0,1-0.4,1-1v-7c0-0.6,0.4-1,1-1s1,0.4,1,1v7C21,21.7,19.7,23,18,23z"/>
<path class="st0" d="M8,17c-0.3,0-0.5-0.1-0.7-0.3C7,16.5,6.9,16.1,7,15.8l1-4c0-0.2,0.1-0.3,0.3-0.5l9.5-9.5c1.2-1.2,3.2-1.2,4.4,0
	c1.2,1.2,1.2,3.2,0,4.4l-9.5,9.5c-0.1,0.1-0.3,0.2-0.5,0.3l-4,1C8.2,17,8.1,17,8,17z M9.9,12.5l-0.5,2.1l2.1-0.5l9.3-9.3
	c0.4-0.4,0.4-1.1,0-1.6c-0.4-0.4-1.2-0.4-1.6,0l0,0L9.9,12.5z M18.5,2.5L18.5,2.5L18.5,2.5z"/>
</svg>
