<?xml version="1.0" encoding="utf-8"?>
<!-- Generator: Adobe Illustrator 22.0.0, SVG Export Plug-In . SVG Version: 6.00 Build 0)  -->
<svg version="1.1" id="Flat" xmlns="http://www.w3.org/2000/svg" xmlns:xlink="http://www.w3.org/1999/xlink" x="0px" y="0px"
	 viewBox="0 0 24 24" style="enable-background:new 0 0 24 24;" xml:space="preserve">
<style type="text/css">
	.st0{fill:#FFFFFF;}
</style>
<path class="st0" d="M22.6,16.5l-4.4,4.4c0,0,0,0,0,0c0,0-0.1,0.1-0.1,0.1c0,0,0,0,0,0c0,0,0,0-0.1,0c0,0,0,0-0.1,0c0,0,0,0-0.1,0
	c0,0,0,0-0.1,0c0,0,0,0-0.1,0c0,0,0,0-0.1,0c0,0,0,0-0.1,0c0,0,0,0-0.1,0c0,0,0,0-0.1,0c0,0,0,0-0.1,0c0,0,0,0-0.1,0
	c0,0-0.1,0-0.1,0c0,0-0.1,0-0.1,0c0,0,0,0-0.1,0c0,0,0,0-0.1,0c0,0,0,0-0.1,0c0,0,0,0-0.1,0c0,0,0,0-0.1,0c0,0,0,0-0.1,0
	c0,0,0,0-0.1,0c0,0,0,0-0.1,0c0,0,0,0-0.1,0c0,0,0,0-0.1,0c0,0,0,0-0.1,0c0,0,0,0,0,0c0,0-0.1-0.1-0.1-0.1c0,0,0,0,0,0l-4.4-4.4
	c-0.5-0.5-0.5-1.4,0-1.9c0.5-0.5,1.4-0.5,1.9,0l2.1,2.1V9.4C16,8.6,16.6,8,17.3,8c0.7,0,1.3,0.6,1.3,1.3l0,0v7.4l2.1-2.1
	c0.5-0.5,1.4-0.5,1.9,0C23.1,15.1,23.1,15.9,22.6,16.5L22.6,16.5z M10.2,9.8H2.3C1.6,9.8,1,10.4,1,11.1c0,0.7,0.6,1.3,1.3,1.3h7.9
	c0.7,0,1.3-0.6,1.3-1.3C11.6,10.4,11,9.8,10.2,9.8z M2.3,5.4h15c0.7,0,1.3-0.6,1.3-1.3S18,2.8,17.3,2.8h-15C1.6,2.8,1,3.4,1,4.1
	S1.6,5.4,2.3,5.4z M8.5,16.8H2.3c-0.7,0-1.3,0.6-1.3,1.3c0,0.7,0.6,1.3,1.3,1.3h6.2c0.7,0,1.3-0.6,1.3-1.3
	C9.8,17.4,9.2,16.8,8.5,16.8z"/>
</svg>
