<?xml version="1.0" encoding="utf-8"?>
<!-- Generator: Adobe Illustrator 22.0.0, SVG Export Plug-In . SVG Version: 6.00 Build 0)  -->
<svg version="1.1" id="Layer_1" xmlns="http://www.w3.org/2000/svg" xmlns:xlink="http://www.w3.org/1999/xlink" x="0px" y="0px"
	 viewBox="0 0 24 24" style="enable-background:new 0 0 24 24;" xml:space="preserve">
<style type="text/css">
	.st0{fill:#FFFFFF;}
</style>
<path class="st0" d="M12,22.2c-0.8,0-1.5-0.3-2.1-0.9l-8.6-8.6C1.1,12.5,1,12.3,1,12V2c0-0.6,0.4-1,1-1h10c0.3,0,0.5,0.1,0.7,0.3
	l8.6,8.6c1.2,1.2,1.2,3.1,0,4.2c0,0,0,0,0,0l-7.2,7.2C13.5,21.9,12.8,22.2,12,22.2z M3,11.6l8.3,8.3c0.4,0.4,1,0.4,1.4,0l7.2-7.2
	c0.4-0.4,0.4-1,0-1.4L11.6,3H3V11.6z M20.6,13.4L20.6,13.4L20.6,13.4z"/>
<path class="st0" d="M7,8C6.5,8,6,7.6,6,7s0.4-1,1-1h0c0.6,0,1,0.4,1,1S7.6,8,7,8z"/>
</svg>
