<?xml version="1.0" encoding="UTF-8" standalone="no"?>
<svg
   id="icon"
   viewBox="0 0 24 24"
   version="1.1"
   sodipodi:docname="template-icon-original.svg"
   width="24"
   height="24"
   inkscape:version="1.3 (0e150ed6c4, 2023-07-21)"
   xmlns:inkscape="http://www.inkscape.org/namespaces/inkscape"
   xmlns:sodipodi="http://sodipodi.sourceforge.net/DTD/sodipodi-0.dtd"
   xmlns="http://www.w3.org/2000/svg"
   xmlns:svg="http://www.w3.org/2000/svg"
   xmlns:rdf="http://www.w3.org/1999/02/22-rdf-syntax-ns#"
   xmlns:cc="http://creativecommons.org/ns#"
   xmlns:dc="http://purl.org/dc/elements/1.1/">
  <sodipodi:namedview
     id="namedview3"
     pagecolor="#ffffff"
     bordercolor="#000000"
     borderopacity="0.25"
     inkscape:showpageshadow="2"
     inkscape:pageopacity="0.0"
     inkscape:pagecheckerboard="0"
     inkscape:deskcolor="#d1d1d1"
     inkscape:zoom="26.90625"
     inkscape:cx="13.398374"
     inkscape:cy="12.655052"
     inkscape:window-width="1920"
     inkscape:window-height="1057"
     inkscape:window-x="-8"
     inkscape:window-y="-8"
     inkscape:window-maximized="1"
     inkscape:current-layer="icon" />
  <defs
     id="defs1">
    <style
       id="style1">.cls-1{fill:none;}</style>
  </defs>
  <title
     id="title1">template</title>
  <path
     d="m 20.977933,3.0220674 v 3.591173 H 3.0220674 V 3.0220674 H 20.977933 m 0,-1.7955866 H 3.0220674 A 1.7955865,1.7955865 0 0 0 1.2264808,3.0220674 v 3.591173 A 1.7955865,1.7955865 0 0 0 3.0220674,8.4088269 H 20.977933 A 1.7955865,1.7955865 0 0 0 22.773519,6.6132404 V 3.0220674 A 1.7955865,1.7955865 0 0 0 20.977933,1.2264808 Z"
     id="path1"
     style="fill:#ffffff;fill-opacity:1;stroke-width:0.897793" />
  <path
     d="m 6.6132404,12 v 8.977933 H 3.0220674 V 12 h 3.591173 m 0,-1.795587 H 3.0220674 A 1.7955865,1.7955865 0 0 0 1.2264808,12 v 8.977933 a 1.7955865,1.7955865 0 0 0 1.7955866,1.795586 h 3.591173 A 1.7955865,1.7955865 0 0 0 8.4088269,20.977933 V 12 A 1.7955865,1.7955865 0 0 0 6.6132404,10.204413 Z"
     id="path2"
     style="fill:#ffffff;fill-opacity:1;stroke-width:0.897793" />
  <path
     d="m 20.977933,12 v 8.977933 H 12 V 12 h 8.977933 m 0,-1.795587 H 12 A 1.7955865,1.7955865 0 0 0 10.204413,12 v 8.977933 A 1.7955865,1.7955865 0 0 0 12,22.773519 h 8.977933 a 1.7955865,1.7955865 0 0 0 1.795586,-1.795586 V 12 a 1.7955865,1.7955865 0 0 0 -1.795586,-1.795587 z"
     id="path3"
     style="fill:#ffffff;fill-opacity:1;stroke-width:0.897793" />
  <rect
     class="cls-1"
     width="32"
     height="32"
     id="rect3"
     x="0"
     y="0" />
  <metadata
     id="metadata3">
    <rdf:RDF>
      <cc:Work
         rdf:about="">
        <dc:title>template</dc:title>
      </cc:Work>
    </rdf:RDF>
  </metadata>
</svg>
