<?xml version="1.0" encoding="utf-8"?>
<!-- Generator: Adobe Illustrator 22.0.0, SVG Export Plug-In . SVG Version: 6.00 Build 0)  -->
<svg version="1.1" id="Layer_1" xmlns="http://www.w3.org/2000/svg" xmlns:xlink="http://www.w3.org/1999/xlink" x="0px" y="0px"
	 viewBox="0 0 16 16" style="enable-background:new 0 0 16 16;" xml:space="preserve">
<style type="text/css">
	.st0{fill:#FFFFFF;}
</style>
<path class="st0" d="M15.3,0.7h-4.4C9.7,0.7,8.7,1.3,8,2.2C7.3,1.3,6.3,0.7,5.1,0.7H0.7C0.3,0.7,0,1,0,1.5v10.9
	c0,0.4,0.3,0.7,0.7,0.7h5.1c0.8,0,1.5,0.7,1.5,1.5c0,0.4,0.3,0.7,0.7,0.7c0.4,0,0.7-0.3,0.7-0.7c0-0.8,0.7-1.5,1.5-1.5h5.1
	c0.4,0,0.7-0.3,0.7-0.7V1.5C16,1,15.7,0.7,15.3,0.7z M7.3,12c-0.4-0.2-0.9-0.4-1.5-0.4H1.5V2.2h3.6c1.2,0,2.2,0.9,2.2,2.2V12z
	 M14.5,11.6h-4.4c-0.5,0-1,0.1-1.5,0.4V4.4c0-1.2,0.9-2.2,2.2-2.2h3.6V11.6z"/>
</svg>
