<?xml version="1.0" encoding="utf-8"?>
<!-- Generator: Adobe Illustrator 22.0.0, SVG Export Plug-In . SVG Version: 6.00 Build 0)  -->
<svg version="1.1" id="Layer_1" xmlns="http://www.w3.org/2000/svg" xmlns:xlink="http://www.w3.org/1999/xlink" x="0px" y="0px"
	 viewBox="0 0 24 24" style="enable-background:new 0 0 24 24;" xml:space="preserve">
<style type="text/css">
	.st0{fill:#FFFFFF;}
</style>
<path class="st0" d="M22,2h-6c-1.6,0-3.1,0.8-4,2c-0.9-1.2-2.4-2-4-2H2C1.4,2,1,2.4,1,3v15c0,0.6,0.4,1,1,1h7c1.1,0,2,0.9,2,2
	c0,0.6,0.4,1,1,1s1-0.4,1-1c0-1.1,0.9-2,2-2h7c0.6,0,1-0.4,1-1V3C23,2.4,22.6,2,22,2z M11,17.5C10.4,17.2,9.7,17,9,17H3V4h5
	c1.7,0,3,1.3,3,3V17.5z M21,17h-6c-0.7,0-1.4,0.2-2,0.5V7c0-1.7,1.3-3,3-3h5V17z"/>
</svg>
