<?xml version="1.0" encoding="utf-8"?>
<!-- Generator: Adobe Illustrator 22.0.0, SVG Export Plug-In . SVG Version: 6.00 Build 0)  -->
<svg version="1.1" id="Layer_1" xmlns="http://www.w3.org/2000/svg" xmlns:xlink="http://www.w3.org/1999/xlink" x="0px" y="0px"
	 viewBox="0 0 24 24" style="enable-background:new 0 0 24 24;" xml:space="preserve">
<style type="text/css">
	.st0{fill:#FFFFFF;}
</style>
<title>WhiteWizard</title>
<path class="st0" d="M6.1,17.8c0.9,0.3,2.6,0.6,5.5,0.6c4.5,0,6.8-0.5,6.8-1.5c0-0.3-0.5-1.4-1-2.3c-1.4-3.1-3.2-7-1.5-8.4
	c1.6-1.2,3.4-0.6,4.4-0.2c-0.4-0.7-1.4-1.9-3.1-3c-1.4-0.9-2.9-0.4-4,0.1c-1.5,0.8-2.8,2-3.7,3.4c-1.4,2-4.8,9.4-4.9,10.3
	C4.8,17.1,5,17.4,6.1,17.8z"/>
<path class="st0" d="M18.9,15c0.5,1,0.7,1.6,0.7,1.9c0,1.8-2.3,2.6-7.9,2.6c-4.9,0-8-1-8-2.6c0-0.3,0.2-0.9,0.5-1.7
	C1.6,15.9,0,16.8,0,17.9c0,1.9,5.4,3.5,12,3.5s12-1.6,12-3.5C24,16.7,22,15.7,18.9,15z"/>
</svg>
