<svg id="Layer_1" data-name="Layer 1" xmlns="http://www.w3.org/2000/svg" viewBox="0 0 100 78.19"><defs><style>.cls-1{fill:#fff;}</style></defs><title>WhiteWizard</title><path class="cls-1" d="M25.55,74.14c3.76,1.23,10.8,2.68,23,2.68,18.76,0,28.27-2,28.27-6.11,0-1.15-2.23-5.91-4-9.73-6-13.06-13.52-29.31-6.06-34.95,6.62-5,14.08-2.52,18.54-.77-1.76-2.94-5.72-7.74-12.9-12.3-5.76-3.67-12.19-1.74-16.57.52a44.62,44.62,0,0,0-15.5,14.23c-5.73,8.38-20.16,39.32-20.48,43C19.87,71.07,20.93,72.64,25.55,74.14Z" transform="translate(0 -10.91)"/><path class="cls-1" d="M78.65,62.61c1.88,4.16,2.79,6.51,2.79,8.1,0,7.64-9.53,10.76-32.91,10.76C28,81.47,15.2,77.34,15.2,70.71c0-1.11.85-3.73,2.22-7.21C6.76,66.17,0,70.12,0,74.54c0,8,22.39,14.55,50,14.55s50-6.51,50-14.55C100,69.6,91.56,65.24,78.65,62.61Z" transform="translate(0 -10.91)"/></svg>